<svg width="16" height="16" viewBox="0 0 16 16" fill="none" xmlns="http://www.w3.org/2000/svg">
    <path d="M10.0968 3.00101C11.1448 3.1629 12.1474 3.44553 13.0821 3.82914C13.0902 3.83226 13.0976 3.83748 13.1017 3.84476C14.7578 6.02383 15.5763 8.48185 15.2706 11.3116C15.2695 11.3235 15.262 11.3346 15.2511 11.3418C13.9966 12.1659 12.7815 12.6665 11.5831 12.9981C11.564 13.0033 11.5429 12.997 11.5314 12.9825C11.2545 12.6379 11.0035 12.2741 10.7833 11.8926C10.7707 11.8703 10.7818 11.8439 10.8077 11.835C11.2071 11.7002 11.587 11.5387 11.9523 11.3477C11.9812 11.3326 11.9828 11.2951 11.9562 11.2774C11.8789 11.2259 11.8019 11.1722 11.7286 11.1182C11.7148 11.1084 11.6964 11.1057 11.6808 11.1123C9.3088 12.0926 6.70997 12.0926 4.30968 11.1123C4.29424 11.1063 4.276 11.1086 4.26281 11.1182C4.18944 11.1723 4.1121 11.2259 4.03527 11.2774C4.00868 11.2951 4.01125 11.3326 4.04015 11.3477C4.40533 11.535 4.78504 11.6997 5.18371 11.835C5.20964 11.8438 5.22166 11.8703 5.2091 11.8926C4.99348 12.2747 4.74219 12.6388 4.46007 12.9834C4.44791 12.9974 4.42731 13.0033 4.40831 12.9981C3.21581 12.6665 2.00057 12.1658 0.746205 11.3418C0.735972 11.3346 0.728827 11.3234 0.727651 11.3116C0.472126 8.86373 0.992257 6.38481 2.89367 3.84379C2.89818 3.83717 2.90531 3.83228 2.9132 3.82914C3.84843 3.445 4.85121 3.16241 5.89855 3.00101C5.91757 2.99842 5.93751 3.00556 5.94738 3.02055C6.07688 3.22566 6.22431 3.48914 6.32433 3.70414C7.42852 3.55317 8.55054 3.55317 9.67785 3.70414C9.77785 3.49382 9.92002 3.22565 10.0489 3.02055C10.0587 3.00516 10.0779 2.99809 10.0968 3.00101ZM5.56749 7.1768C4.83343 7.17696 4.25011 7.77032 4.25011 8.49906C4.2503 9.22764 4.84509 9.82116 5.56749 9.82133C6.30156 9.82133 6.88567 9.22774 6.88585 8.49906C6.89742 7.77543 6.30746 7.1768 5.56749 7.1768ZM10.4415 7.1768C9.70732 7.1768 9.12316 7.77022 9.12316 8.49906C9.12334 9.22774 9.719 9.82133 10.4415 9.82133C11.1813 9.82118 11.7587 9.22765 11.7589 8.49906C11.7704 7.77553 11.1814 7.17695 10.4415 7.1768Z" fill="black"/>
</svg>
