<svg width="16" height="16" viewBox="0 0 16 16" fill="none" xmlns="http://www.w3.org/2000/svg">
    <path d="M7.99998 1.59998C4.47102 1.59998 1.59998 4.47102 1.59998 7.99998C1.59998 11.5289 4.47102 14.4 7.99998 14.4C11.5289 14.4 14.4 11.5289 14.4 7.99998C14.4 4.47102 11.5289 1.59998 7.99998 1.59998ZM13.0758 7.35997H11.3069C11.2279 5.95917 10.836 4.59387 10.16 3.36446C10.9435 3.73057 11.6216 4.28887 12.1314 4.98744C12.6412 5.68601 12.9661 6.50215 13.0758 7.35997ZM8.33918 2.89726C9.00157 3.77022 9.89246 5.31646 10.0205 7.35997H6.09917C6.18813 5.69853 6.73533 4.14206 7.66781 2.89662C7.77789 2.89022 7.88798 2.87998 7.99998 2.87998C8.11454 2.87998 8.22653 2.89022 8.33918 2.89726ZM5.88029 3.34526C5.25054 4.5555 4.88702 5.92766 4.81918 7.35997H2.92414C3.03471 6.49459 3.36422 5.67172 3.88151 4.9692C4.39879 4.26668 5.08675 3.70774 5.88029 3.34526ZM2.92414 8.63998H4.8275C4.91454 10.1625 5.2531 11.5059 5.82334 12.6272C5.04394 12.2598 4.36972 11.7018 3.86299 11.005C3.35626 10.3081 3.03336 9.49467 2.92414 8.63998ZM7.64797 13.1027C6.75134 12.016 6.22206 10.4934 6.10622 8.63998H10.0185C9.88542 10.4147 9.30365 11.9654 8.35261 13.1021C8.23614 13.1097 8.11966 13.12 7.99998 13.12C7.88094 13.12 7.7651 13.1097 7.64797 13.1027ZM10.215 12.6086C10.8262 11.4605 11.1993 10.112 11.2973 8.63998H13.0752C12.9672 9.48751 12.6489 10.2946 12.1494 10.9877C11.6498 11.6809 10.9849 12.2381 10.215 12.6086Z" fill="black"/>
</svg>
