<svg width="16" height="16" viewBox="0 0 16 16" fill="none" xmlns="http://www.w3.org/2000/svg">
    <path d="M7.99963 0.999634C11.8655 0.999634 14.9995 4.13379 14.9996 7.99963C14.9996 11.8656 11.8656 14.9996 7.99963 14.9996C4.13379 14.9995 0.999634 11.8655 0.999634 7.99963C0.99981 4.1339 4.1339 0.99981 7.99963 0.999634ZM10.8619 5.21448C10.5987 5.21914 10.1944 5.35911 8.25061 6.1676C7.56971 6.45082 6.20908 7.03738 4.16858 7.92639C3.83728 8.05815 3.66387 8.18707 3.64807 8.31311C3.62163 8.52594 3.88847 8.61006 4.25159 8.72424C4.3008 8.73972 4.35167 8.75608 4.40393 8.77307C4.76134 8.88925 5.24286 9.02451 5.4928 9.02991C5.71941 9.03468 5.97239 8.94135 6.25159 8.74963C8.15363 7.4657 9.13773 6.81546 9.20374 6.79846C9.24733 6.78857 9.30831 6.77575 9.34924 6.81213C9.39011 6.84853 9.3858 6.91768 9.38147 6.93616C9.35371 7.04988 8.30781 8.0225 7.76624 8.526C7.59729 8.68306 7.47726 8.7945 7.45276 8.81995C7.39791 8.87692 7.34242 8.93124 7.2887 8.98303C6.95665 9.30312 6.70754 9.5432 7.30237 9.93518C7.58793 10.1234 7.81655 10.2789 8.04456 10.4342C8.29369 10.6039 8.54242 10.7733 8.86389 10.984C8.94575 11.0377 9.02407 11.0938 9.10022 11.1481C9.39024 11.3548 9.65136 11.54 9.97327 11.5104C10.1602 11.4931 10.3537 11.3177 10.4518 10.7936C10.6837 9.55387 11.1394 6.86724 11.2448 5.76038C11.2539 5.66345 11.2423 5.53946 11.233 5.48499C11.2237 5.43055 11.2041 5.35298 11.1334 5.29553C11.0496 5.22748 10.9198 5.21346 10.8619 5.21448Z" fill="black"/>
</svg>
